<svg xmlns="http://www.w3.org/2000/svg" xmlns:xlink="http://www.w3.org/1999/xlink" width="500" zoomAndPan="magnify" viewBox="0 0 375 374.999991" height="500" preserveAspectRatio="xMidYMid meet" version="1.0"><defs><g/><clipPath id="441de4d4c5"><path d="M 56.828125 166.023438 L 96.414062 166.023438 L 96.414062 207.914062 L 56.828125 207.914062 Z M 56.828125 166.023438 " clip-rule="nonzero"/></clipPath><clipPath id="53d40d92d4"><path d="M 64.648438 189 L 88.585938 189 L 88.585938 191 L 64.648438 191 Z M 64.648438 189 " clip-rule="nonzero"/></clipPath><clipPath id="3eb06ffeb0"><path d="M 64.648438 191 L 88.585938 191 L 88.585938 201.789062 L 64.648438 201.789062 Z M 64.648438 191 " clip-rule="nonzero"/></clipPath><clipPath id="48032fedba"><path d="M 76 176.929688 L 80 176.929688 L 80 181 L 76 181 Z M 76 176.929688 " clip-rule="nonzero"/></clipPath></defs><g clip-path="url(#441de4d4c5)"><path fill="#368044" d="M 64.519531 172.660156 C 59.839844 176.277344 56.828125 181.941406 56.828125 188.304688 C 56.828125 199.210938 65.683594 208.066406 76.589844 208.066406 C 87.496094 208.066406 96.351562 199.210938 96.351562 188.304688 C 96.351562 182.128906 93.511719 176.613281 89.066406 172.992188 C 89.046875 171.476562 88.109375 169.691406 86.464844 168.335938 C 84.03125 166.335938 80.96875 166.035156 79.628906 167.664062 C 78.289062 169.292969 79.175781 172.238281 81.609375 174.238281 C 83.316406 175.644531 85.335938 176.210938 86.847656 175.859375 C 90.4375 178.816406 92.726562 183.296875 92.726562 188.304688 C 92.726562 197.210938 85.496094 204.441406 76.589844 204.441406 C 67.683594 204.441406 60.453125 197.210938 60.453125 188.304688 C 60.453125 183.203125 62.824219 178.652344 66.523438 175.691406 C 67.117188 175.847656 68.109375 175.621094 68.792969 175.160156 L 74.859375 171.082031 C 75.097656 170.921875 75.191406 170.628906 75.066406 170.429688 C 74.945312 170.230469 74.652344 170.199219 74.417969 170.359375 L 69.171875 173.984375 C 68.9375 174.144531 68.667969 174.160156 68.574219 174.019531 C 68.480469 173.878906 68.597656 173.632812 68.835938 173.476562 L 74.144531 169.957031 C 74.382812 169.800781 74.476562 169.507812 74.351562 169.308594 C 74.226562 169.105469 73.933594 169.074219 73.695312 169.230469 L 68.363281 172.765625 C 68.125 172.921875 67.828125 172.894531 67.703125 172.703125 C 67.574219 172.511719 67.664062 172.230469 67.902344 172.070312 L 73.234375 168.539062 C 73.472656 168.378906 73.5625 168.09375 73.433594 167.898438 C 73.300781 167.703125 73.003906 167.671875 72.765625 167.828125 L 67.433594 171.363281 C 67.195312 171.519531 66.929688 171.539062 66.839844 171.40625 C 66.753906 171.273438 66.875 171.035156 67.113281 170.875 L 72.402344 167.371094 C 72.640625 167.210938 72.746094 166.9375 72.636719 166.761719 C 72.527344 166.582031 72.242188 166.5625 72.003906 166.722656 L 65.886719 170.777344 C 65.203125 171.230469 64.609375 172.054688 64.519531 172.660156 Z M 64.519531 172.660156 " fill-opacity="1" fill-rule="nonzero"/></g><path fill="#f97316" d="M 67.449219 184.449219 C 67.675781 184.597656 67.921875 184.679688 68.191406 184.695312 L 67.765625 185.390625 L 68.445312 185.800781 L 68.855469 185.128906 C 68.988281 185.339844 69.160156 185.503906 69.378906 185.625 C 69.597656 185.746094 69.832031 185.808594 70.082031 185.804688 C 70.351562 185.808594 70.601562 185.742188 70.832031 185.605469 C 71.066406 185.46875 71.246094 185.285156 71.375 185.046875 C 71.503906 184.8125 71.566406 184.5625 71.554688 184.292969 C 71.546875 184.023438 71.472656 183.777344 71.324219 183.550781 C 71.503906 183.371094 71.636719 183.164062 71.726562 182.929688 C 71.816406 182.695312 71.855469 182.449219 71.839844 182.199219 C 71.824219 181.945312 71.761719 181.707031 71.644531 181.484375 C 71.527344 181.261719 71.367188 181.070312 71.171875 180.914062 C 70.972656 180.757812 70.75 180.652344 70.507812 180.589844 C 70.261719 180.527344 70.015625 180.519531 69.765625 180.566406 C 69.519531 180.609375 69.289062 180.703125 69.082031 180.847656 C 68.875 180.988281 68.703125 181.167969 68.574219 181.382812 C 68.496094 181.503906 68.4375 181.636719 68.394531 181.773438 C 68.058594 181.742188 67.75 181.816406 67.46875 181.996094 C 67.183594 182.179688 66.984375 182.429688 66.875 182.746094 C 66.761719 183.0625 66.761719 183.382812 66.867188 183.699219 C 66.976562 184.019531 67.167969 184.273438 67.449219 184.457031 Z M 67.449219 184.449219 " fill-opacity="1" fill-rule="nonzero"/><path fill="#f97316" d="M 82.753906 187.800781 C 82.894531 187.902344 82.984375 188.039062 83.019531 188.214844 C 83.054688 188.386719 83.027344 188.546875 82.933594 188.695312 C 82.867188 188.804688 82.835938 188.921875 82.832031 189.046875 L 84.175781 189.046875 C 84.175781 188.953125 84.15625 188.863281 84.121094 188.777344 C 84.023438 188.566406 84.070312 188.394531 84.253906 188.257812 C 84.4375 188.121094 84.613281 188.128906 84.789062 188.277344 C 84.910156 188.382812 85.054688 188.433594 85.214844 188.433594 C 85.375 188.433594 85.515625 188.382812 85.640625 188.277344 C 85.769531 188.167969 85.847656 188.03125 85.875 187.859375 C 85.898438 187.691406 85.867188 187.535156 85.773438 187.390625 C 85.695312 187.269531 85.585938 187.183594 85.449219 187.132812 C 85.3125 187.082031 85.175781 187.074219 85.035156 187.113281 C 84.867188 187.160156 84.703125 187.140625 84.550781 187.0625 C 84.394531 186.980469 84.289062 186.859375 84.230469 186.695312 C 84.195312 186.597656 84.148438 186.511719 84.089844 186.429688 C 83.929688 186.21875 83.71875 186.089844 83.453125 186.050781 C 83.191406 186.015625 82.949219 186.074219 82.734375 186.230469 C 82.609375 186.324219 82.515625 186.441406 82.445312 186.578125 C 82.378906 186.71875 82.34375 186.863281 82.34375 187.019531 C 82.347656 187.175781 82.382812 187.320312 82.453125 187.457031 C 82.527344 187.597656 82.625 187.710938 82.75 187.800781 Z M 82.753906 187.800781 " fill-opacity="1" fill-rule="nonzero"/><g clip-path="url(#53d40d92d4)"><path fill="#f97316" d="M 64.648438 189.839844 L 88.519531 189.839844 L 88.519531 190.410156 L 64.648438 190.410156 Z M 64.648438 189.839844 " fill-opacity="1" fill-rule="nonzero"/></g><g clip-path="url(#3eb06ffeb0)"><path fill="#f97316" d="M 75.515625 201.675781 L 77.65625 201.675781 C 78.351562 201.671875 79.042969 201.605469 79.726562 201.472656 C 80.410156 201.339844 81.074219 201.140625 81.71875 200.882812 C 82.363281 200.621094 82.980469 200.300781 83.5625 199.921875 C 84.148438 199.542969 84.691406 199.109375 85.191406 198.628906 C 85.695312 198.144531 86.144531 197.617188 86.542969 197.046875 C 86.945312 196.476562 87.289062 195.875 87.570312 195.238281 C 87.855469 194.601562 88.078125 193.945312 88.234375 193.269531 C 88.394531 192.589844 88.488281 191.902344 88.511719 191.207031 L 64.65625 191.207031 C 64.683594 191.902344 64.777344 192.589844 64.933594 193.269531 C 65.09375 193.945312 65.3125 194.601562 65.597656 195.238281 C 65.882812 195.875 66.226562 196.476562 66.625 197.046875 C 67.027344 197.617188 67.476562 198.144531 67.980469 198.628906 C 68.480469 199.109375 69.023438 199.542969 69.605469 199.921875 C 70.191406 200.300781 70.804688 200.621094 71.453125 200.882812 C 72.097656 201.140625 72.761719 201.339844 73.445312 201.472656 C 74.128906 201.605469 74.820312 201.671875 75.515625 201.675781 Z M 75.515625 201.675781 " fill-opacity="1" fill-rule="nonzero"/></g><path fill="#f97316" d="M 80.207031 186.023438 C 80.34375 185.78125 80.425781 185.523438 80.453125 185.25 C 80.484375 184.976562 80.457031 184.707031 80.378906 184.441406 C 80.296875 184.175781 80.171875 183.9375 79.992188 183.726562 C 79.816406 183.515625 79.605469 183.34375 79.359375 183.21875 C 79.113281 183.09375 78.851562 183.019531 78.574219 183 C 78.300781 182.980469 78.03125 183.015625 77.769531 183.105469 C 77.507812 183.195312 77.273438 183.332031 77.070312 183.515625 C 76.863281 183.699219 76.703125 183.917969 76.585938 184.167969 L 77.292969 184.53125 C 77.363281 184.382812 77.464844 184.25 77.589844 184.140625 C 77.714844 184.027344 77.855469 183.945312 78.015625 183.890625 C 78.171875 183.839844 78.335938 183.816406 78.5 183.832031 C 78.667969 183.84375 78.828125 183.886719 78.976562 183.960938 C 79.125 184.039062 79.253906 184.140625 79.359375 184.269531 C 79.46875 184.398438 79.546875 184.542969 79.59375 184.699219 C 79.644531 184.859375 79.660156 185.023438 79.644531 185.191406 C 79.628906 185.355469 79.578125 185.511719 79.5 185.660156 Z M 80.207031 186.023438 " fill-opacity="1" fill-rule="nonzero"/><g clip-path="url(#48032fedba)"><path fill="#f97316" d="M 77.171875 179.699219 C 77.078125 179.558594 77.015625 179.40625 76.988281 179.242188 C 76.957031 179.078125 76.960938 178.914062 76.996094 178.75 C 77.03125 178.585938 77.097656 178.4375 77.195312 178.300781 C 77.289062 178.164062 77.410156 178.050781 77.550781 177.964844 C 77.695312 177.875 77.847656 177.816406 78.011719 177.792969 C 78.175781 177.765625 78.339844 177.773438 78.503906 177.8125 C 78.664062 177.851562 78.8125 177.921875 78.949219 178.023438 C 79.082031 178.121094 79.191406 178.246094 79.277344 178.386719 L 79.953125 177.96875 C 79.8125 177.734375 79.632812 177.535156 79.410156 177.371094 C 79.191406 177.207031 78.949219 177.09375 78.683594 177.03125 C 78.417969 176.964844 78.148438 176.957031 77.878906 177 C 77.609375 177.042969 77.359375 177.136719 77.125 177.28125 C 76.894531 177.425781 76.699219 177.609375 76.539062 177.832031 C 76.382812 178.054688 76.273438 178.300781 76.214844 178.566406 C 76.15625 178.835938 76.148438 179.101562 76.199219 179.371094 C 76.246094 179.640625 76.347656 179.890625 76.496094 180.117188 Z M 77.171875 179.699219 " fill-opacity="1" fill-rule="nonzero"/></g><path fill="#f97316" d="M 73.277344 188.667969 C 73.507812 188.8125 73.757812 188.90625 74.023438 188.949219 C 74.289062 188.992188 74.554688 188.984375 74.816406 188.925781 C 75.078125 188.863281 75.320312 188.753906 75.539062 188.597656 C 75.761719 188.441406 75.941406 188.246094 76.085938 188.019531 L 75.410156 187.597656 C 75.320312 187.738281 75.210938 187.855469 75.078125 187.949219 C 74.945312 188.046875 74.796875 188.113281 74.636719 188.148438 C 74.476562 188.1875 74.316406 188.191406 74.152344 188.164062 C 73.992188 188.136719 73.839844 188.082031 73.699219 187.992188 C 73.558594 187.90625 73.441406 187.796875 73.347656 187.664062 C 73.25 187.527344 73.183594 187.382812 73.148438 187.222656 C 73.109375 187.0625 73.105469 186.898438 73.132812 186.738281 C 73.160156 186.574219 73.214844 186.425781 73.304688 186.285156 L 72.628906 185.859375 C 72.484375 186.089844 72.390625 186.335938 72.347656 186.601562 C 72.304688 186.867188 72.3125 187.132812 72.375 187.394531 C 72.433594 187.660156 72.542969 187.902344 72.699219 188.121094 C 72.855469 188.339844 73.050781 188.519531 73.277344 188.664062 Z M 73.277344 188.667969 " fill-opacity="1" fill-rule="nonzero"/><path fill="#f97316" d="M 80.933594 180.738281 L 81.726562 180.738281 L 81.726562 181.535156 L 80.933594 181.535156 Z M 80.933594 180.738281 " fill-opacity="1" fill-rule="nonzero"/><path fill="#f97316" d="M 86.277344 183.605469 L 87.074219 183.605469 L 87.074219 184.402344 L 86.277344 184.402344 Z M 86.277344 183.605469 " fill-opacity="1" fill-rule="nonzero"/><path fill="#f97316" d="M 73.125 181.410156 L 73.917969 181.410156 L 73.917969 182.203125 L 73.125 182.203125 Z M 73.125 181.410156 " fill-opacity="1" fill-rule="nonzero"/><g fill="#368044" fill-opacity="1"><g transform="translate(104.10431, 201.333162)"><g><path d="M 3.558594 0 L 10.246094 0 L 10.246094 -17.871094 L 17.445312 -7.324219 L 22.105469 -7.324219 L 29.300781 -17.828125 L 29.300781 0 L 35.992188 0 L 35.992188 -29.640625 L 30.320312 -29.640625 L 19.816406 -14.269531 L 9.273438 -29.640625 L 3.558594 -29.640625 Z M 3.558594 0 "/></g></g></g><g fill="#368044" fill-opacity="1"><g transform="translate(141.323213, 201.333162)"><g><path d="M 13.71875 0.59375 C 19.183594 0.59375 23.5 -2.203125 25.449219 -6.902344 L 18.929688 -6.902344 C 17.871094 -5.421875 15.964844 -4.574219 13.847656 -4.574219 C 10.925781 -4.574219 8.636719 -6.226562 8.046875 -9.273438 L 25.871094 -9.273438 C 26.253906 -17.402344 21.425781 -22.824219 13.804688 -22.824219 C 6.605469 -22.824219 1.652344 -18.039062 1.652344 -11.136719 C 1.652344 -4.191406 6.5625 0.59375 13.71875 0.59375 Z M 8.085938 -13.339844 C 8.808594 -16.046875 11.007812 -17.699219 13.847656 -17.699219 C 16.8125 -17.699219 18.929688 -16.046875 19.648438 -13.339844 Z M 8.085938 -13.339844 "/></g></g></g><g fill="#368044" fill-opacity="1"><g transform="translate(166.474456, 201.333162)"><g><path d="M 10.628906 0.421875 C 13.929688 0.421875 16.640625 -0.636719 18.546875 -2.582031 L 19.265625 0 L 24.050781 0 L 24.050781 -13.382812 C 24.050781 -19.265625 20.070312 -22.824219 13.421875 -22.824219 C 7.75 -22.824219 4.023438 -20.113281 3.21875 -15.285156 L 9.402344 -15.285156 C 9.78125 -16.851562 11.390625 -17.910156 13.464844 -17.910156 C 16.007812 -17.910156 17.742188 -16.472656 17.742188 -14.269531 L 17.742188 -13.253906 L 9.695312 -13.253906 C 5.082031 -13.253906 2.117188 -10.585938 2.117188 -6.480469 C 2.117188 -2.203125 5.378906 0.421875 10.628906 0.421875 Z M 8.46875 -6.734375 C 8.46875 -8.257812 9.738281 -9.230469 11.6875 -9.230469 L 17.785156 -9.230469 C 17.65625 -6.226562 15.328125 -4.191406 12.109375 -4.191406 C 9.910156 -4.191406 8.46875 -5.207031 8.46875 -6.734375 Z M 8.46875 -6.734375 "/></g></g></g><g fill="#368044" fill-opacity="1"><g transform="translate(190.990564, 201.333162)"><g><path d="M 3.21875 0 L 9.65625 0 L 9.65625 -31.335938 L 3.21875 -31.335938 Z M 3.21875 0 "/></g></g></g><g fill="#368044" fill-opacity="1"><g transform="translate(201.533589, 201.333162)"><g/></g></g><g fill="#f97316" fill-opacity="1"><g transform="translate(209.168381, 201.333162)"><g><path d="M 3.558594 0 L 15.285156 0 C 24.644531 0 30.910156 -5.96875 30.910156 -14.820312 C 30.910156 -23.628906 24.644531 -29.640625 15.285156 -29.640625 L 3.558594 -29.640625 Z M 10.289062 -6.183594 L 10.289062 -23.457031 L 15.074219 -23.457031 C 20.410156 -23.457031 24.007812 -20.027344 24.007812 -14.820312 C 24.007812 -9.613281 20.410156 -6.183594 15.160156 -6.183594 Z M 10.289062 -6.183594 "/></g></g></g><g fill="#f97316" fill-opacity="1"><g transform="translate(239.527781, 201.333162)"><g><path d="M 13.71875 0.59375 C 19.183594 0.59375 23.5 -2.203125 25.449219 -6.902344 L 18.929688 -6.902344 C 17.871094 -5.421875 15.964844 -4.574219 13.847656 -4.574219 C 10.925781 -4.574219 8.636719 -6.226562 8.046875 -9.273438 L 25.871094 -9.273438 C 26.253906 -17.402344 21.425781 -22.824219 13.804688 -22.824219 C 6.605469 -22.824219 1.652344 -18.039062 1.652344 -11.136719 C 1.652344 -4.191406 6.5625 0.59375 13.71875 0.59375 Z M 8.085938 -13.339844 C 8.808594 -16.046875 11.007812 -17.699219 13.847656 -17.699219 C 16.8125 -17.699219 18.929688 -16.046875 19.648438 -13.339844 Z M 8.085938 -13.339844 "/></g></g></g><g fill="#f97316" fill-opacity="1"><g transform="translate(264.679026, 201.333162)"><g><path d="M 10.628906 0.421875 C 13.929688 0.421875 16.640625 -0.636719 18.546875 -2.582031 L 19.265625 0 L 24.050781 0 L 24.050781 -13.382812 C 24.050781 -19.265625 20.070312 -22.824219 13.421875 -22.824219 C 7.75 -22.824219 4.023438 -20.113281 3.21875 -15.285156 L 9.402344 -15.285156 C 9.78125 -16.851562 11.390625 -17.910156 13.464844 -17.910156 C 16.007812 -17.910156 17.742188 -16.472656 17.742188 -14.269531 L 17.742188 -13.253906 L 9.695312 -13.253906 C 5.082031 -13.253906 2.117188 -10.585938 2.117188 -6.480469 C 2.117188 -2.203125 5.378906 0.421875 10.628906 0.421875 Z M 8.46875 -6.734375 C 8.46875 -8.257812 9.738281 -9.230469 11.6875 -9.230469 L 17.785156 -9.230469 C 17.65625 -6.226562 15.328125 -4.191406 12.109375 -4.191406 C 9.910156 -4.191406 8.46875 -5.207031 8.46875 -6.734375 Z M 8.46875 -6.734375 "/></g></g></g><g fill="#f97316" fill-opacity="1"><g transform="translate(289.195138, 201.333162)"><g><path d="M 3.21875 0 L 9.65625 0 L 9.65625 -31.335938 L 3.21875 -31.335938 Z M 3.21875 0 "/></g></g></g></svg>