<svg xmlns="http://www.w3.org/2000/svg" xmlns:xlink="http://www.w3.org/1999/xlink" width="500" zoomAndPan="magnify" viewBox="0 0 375 374.999991" height="500" preserveAspectRatio="xMidYMid meet" version="1.0"><defs><clipPath id="ce2a43ea1e"><path d="M 138.042969 136 L 237 136 L 237 239.71875 L 138.042969 239.71875 Z M 138.042969 136 " clip-rule="nonzero"/></clipPath><clipPath id="78bb21814f"><path d="M 157.621094 194 L 217.523438 194 L 217.523438 196 L 157.621094 196 Z M 157.621094 194 " clip-rule="nonzero"/></clipPath><clipPath id="7a5200f8ef"><path d="M 157.621094 197 L 217.523438 197 L 217.523438 224.386719 L 157.621094 224.386719 Z M 157.621094 197 " clip-rule="nonzero"/></clipPath><clipPath id="038a7566f3"><path d="M 186 162.179688 L 196 162.179688 L 196 171 L 186 171 Z M 186 162.179688 " clip-rule="nonzero"/></clipPath></defs><g clip-path="url(#ce2a43ea1e)"><path fill="#368044" d="M 157.296875 151.496094 C 145.589844 160.542969 138.042969 174.722656 138.042969 190.648438 C 138.042969 217.945312 160.203125 240.101562 187.5 240.101562 C 214.792969 240.101562 236.953125 217.945312 236.953125 190.648438 C 236.953125 175.195312 229.847656 161.386719 218.722656 152.324219 C 218.679688 148.527344 216.332031 144.0625 212.214844 140.675781 C 206.128906 135.667969 198.464844 134.910156 195.113281 138.988281 C 191.757812 143.0625 193.976562 150.4375 200.0625 155.445312 C 204.335938 158.964844 209.390625 160.382812 213.179688 159.5 C 222.160156 166.902344 227.882812 178.113281 227.882812 190.648438 C 227.882812 212.9375 209.789062 231.03125 187.5 231.03125 C 165.210938 231.03125 147.117188 212.9375 147.117188 190.648438 C 147.117188 177.882812 153.054688 166.488281 162.3125 159.082031 C 163.792969 159.476562 166.277344 158.902344 167.984375 157.753906 L 183.175781 147.539062 C 183.769531 147.140625 184.003906 146.410156 183.691406 145.910156 C 183.382812 145.410156 182.65625 145.332031 182.066406 145.742188 L 168.9375 154.804688 C 168.347656 155.210938 167.679688 155.253906 167.441406 154.898438 C 167.207031 154.542969 167.5 153.933594 168.097656 153.535156 L 181.382812 144.730469 C 181.976562 144.332031 182.210938 143.605469 181.902344 143.105469 C 181.589844 142.601562 180.855469 142.515625 180.257812 142.910156 L 166.917969 151.757812 C 166.320312 152.152344 165.578125 152.085938 165.261719 151.605469 C 164.941406 151.128906 165.171875 150.417969 165.765625 150.023438 L 179.109375 141.175781 C 179.703125 140.78125 179.925781 140.0625 179.601562 139.574219 C 179.277344 139.085938 178.527344 139.007812 177.933594 139.402344 L 164.589844 148.25 C 163.996094 148.644531 163.328125 148.691406 163.105469 148.355469 C 162.882812 148.019531 163.1875 147.425781 163.785156 147.03125 L 177.019531 138.253906 C 177.617188 137.859375 177.878906 137.175781 177.605469 136.726562 C 177.332031 136.28125 176.625 136.238281 176.027344 136.632812 L 160.714844 146.785156 C 159.007812 147.917969 157.523438 149.980469 157.296875 151.496094 Z M 157.296875 151.496094 " fill-opacity="1" fill-rule="nonzero"/></g><path fill="#f97316" d="M 164.632812 181 C 165.191406 181.371094 165.808594 181.574219 166.480469 181.609375 L 165.421875 183.351562 L 167.121094 184.382812 L 168.148438 182.695312 C 168.480469 183.222656 168.914062 183.636719 169.457031 183.941406 C 170.003906 184.242188 170.589844 184.394531 171.21875 184.394531 C 171.890625 184.398438 172.515625 184.230469 173.097656 183.890625 C 173.675781 183.550781 174.128906 183.085938 174.453125 182.496094 C 174.777344 181.90625 174.929688 181.277344 174.90625 180.605469 C 174.882812 179.933594 174.691406 179.3125 174.328125 178.75 C 174.550781 178.527344 174.746094 178.285156 174.914062 178.023438 C 175.085938 177.761719 175.226562 177.484375 175.335938 177.195312 C 175.445312 176.902344 175.527344 176.601562 175.574219 176.292969 C 175.621094 175.984375 175.636719 175.675781 175.617188 175.363281 C 175.597656 175.050781 175.546875 174.746094 175.464844 174.445312 C 175.382812 174.144531 175.269531 173.855469 175.125 173.578125 C 174.980469 173.300781 174.808594 173.042969 174.609375 172.804688 C 174.40625 172.5625 174.1875 172.347656 173.941406 172.152344 C 173.695312 171.960938 173.433594 171.796875 173.152344 171.65625 C 172.871094 171.519531 172.582031 171.414062 172.277344 171.339844 C 171.972656 171.261719 171.667969 171.21875 171.355469 171.210938 C 171.042969 171.199219 170.734375 171.222656 170.425781 171.277344 C 170.121094 171.332031 169.820312 171.417969 169.53125 171.539062 C 169.242188 171.65625 168.96875 171.804688 168.714844 171.980469 C 168.457031 172.15625 168.21875 172.359375 168.003906 172.585938 C 167.789062 172.8125 167.601562 173.058594 167.4375 173.324219 C 167.25 173.628906 167.101562 173.953125 166.996094 174.296875 C 166.589844 174.257812 166.183594 174.289062 165.785156 174.382812 C 165.390625 174.480469 165.015625 174.640625 164.671875 174.859375 C 164.328125 175.082031 164.027344 175.351562 163.773438 175.671875 C 163.519531 175.996094 163.324219 176.347656 163.1875 176.734375 C 163.050781 177.121094 162.984375 177.519531 162.980469 177.929688 C 162.976562 178.335938 163.042969 178.738281 163.171875 179.125 C 163.304688 179.511719 163.492188 179.867188 163.742188 180.195312 C 163.992188 180.519531 164.289062 180.792969 164.632812 181.019531 Z M 164.632812 181 " fill-opacity="1" fill-rule="nonzero"/><path fill="#f97316" d="M 202.925781 189.386719 C 203.097656 189.507812 203.242188 189.660156 203.359375 189.835938 C 203.476562 190.015625 203.554688 190.207031 203.597656 190.417969 C 203.640625 190.625 203.640625 190.835938 203.601562 191.042969 C 203.566406 191.253906 203.492188 191.445312 203.378906 191.628906 C 203.214844 191.894531 203.132812 192.1875 203.128906 192.5 L 206.488281 192.5 C 206.488281 192.265625 206.441406 192.042969 206.347656 191.828125 C 206.242188 191.597656 206.222656 191.363281 206.285156 191.121094 C 206.347656 190.875 206.480469 190.679688 206.679688 190.53125 C 206.882812 190.378906 207.109375 190.308594 207.359375 190.320312 C 207.609375 190.328125 207.828125 190.417969 208.019531 190.582031 C 208.328125 190.835938 208.683594 190.964844 209.082031 190.964844 C 209.484375 190.964844 209.839844 190.835938 210.148438 190.582031 C 210.308594 190.449219 210.4375 190.292969 210.539062 190.113281 C 210.636719 189.933594 210.703125 189.738281 210.734375 189.535156 C 210.765625 189.332031 210.761719 189.128906 210.71875 188.925781 C 210.675781 188.722656 210.597656 188.535156 210.488281 188.363281 C 210.289062 188.054688 210.019531 187.839844 209.675781 187.710938 C 209.335938 187.582031 208.988281 187.566406 208.636719 187.660156 C 208.433594 187.71875 208.226562 187.734375 208.019531 187.714844 C 207.808594 187.691406 207.609375 187.632812 207.421875 187.535156 C 207.234375 187.4375 207.074219 187.308594 206.933594 187.152344 C 206.796875 186.992188 206.691406 186.8125 206.621094 186.613281 C 206.539062 186.375 206.421875 186.15625 206.269531 185.953125 C 206.078125 185.699219 205.84375 185.488281 205.566406 185.324219 C 205.292969 185.160156 204.996094 185.054688 204.679688 185.007812 C 204.363281 184.960938 204.046875 184.976562 203.738281 185.054688 C 203.425781 185.132812 203.140625 185.265625 202.882812 185.457031 C 202.730469 185.570312 202.589844 185.703125 202.46875 185.847656 C 202.347656 185.996094 202.242188 186.15625 202.160156 186.328125 C 202.074219 186.496094 202.007812 186.675781 201.96875 186.863281 C 201.925781 187.050781 201.902344 187.238281 201.90625 187.429688 C 201.90625 187.621094 201.929688 187.808594 201.976562 187.996094 C 202.023438 188.179688 202.089844 188.359375 202.179688 188.527344 C 202.265625 188.699219 202.375 188.855469 202.5 189 C 202.625 189.144531 202.765625 189.273438 202.921875 189.382812 Z M 202.925781 189.386719 " fill-opacity="1" fill-rule="nonzero"/><g clip-path="url(#78bb21814f)"><path fill="#f97316" d="M 157.621094 194.484375 L 217.363281 194.484375 L 217.363281 195.917969 L 157.621094 195.917969 Z M 157.621094 194.484375 " fill-opacity="1" fill-rule="nonzero"/></g><g clip-path="url(#7a5200f8ef)"><path fill="#f97316" d="M 184.816406 224.105469 L 190.167969 224.105469 C 191.039062 224.101562 191.90625 224.058594 192.769531 223.976562 C 193.636719 223.890625 194.496094 223.765625 195.347656 223.601562 C 196.203125 223.433594 197.046875 223.226562 197.878906 222.980469 C 198.710938 222.730469 199.53125 222.445312 200.339844 222.121094 C 201.144531 221.792969 201.933594 221.429688 202.703125 221.027344 C 203.476562 220.625 204.226562 220.191406 204.957031 219.714844 C 205.683594 219.242188 206.390625 218.734375 207.070312 218.195312 C 207.75 217.652344 208.40625 217.082031 209.03125 216.476562 C 209.65625 215.875 210.253906 215.242188 210.816406 214.582031 C 211.382812 213.921875 211.917969 213.234375 212.414062 212.523438 C 212.914062 211.8125 213.378906 211.078125 213.808594 210.324219 C 214.238281 209.566406 214.632812 208.792969 214.988281 208 C 215.339844 207.203125 215.65625 206.394531 215.9375 205.570312 C 216.214844 204.75 216.453125 203.914062 216.648438 203.066406 C 216.847656 202.21875 217.003906 201.367188 217.121094 200.503906 C 217.234375 199.640625 217.308594 198.777344 217.34375 197.90625 L 157.640625 197.90625 C 157.675781 198.777344 157.75 199.640625 157.863281 200.503906 C 157.980469 201.367188 158.136719 202.21875 158.335938 203.066406 C 158.53125 203.914062 158.769531 204.75 159.046875 205.574219 C 159.324219 206.394531 159.640625 207.207031 159.996094 208 C 160.351562 208.792969 160.746094 209.566406 161.171875 210.324219 C 161.601562 211.078125 162.066406 211.8125 162.566406 212.523438 C 163.066406 213.238281 163.601562 213.921875 164.164062 214.582031 C 164.730469 215.242188 165.328125 215.875 165.953125 216.480469 C 166.578125 217.082031 167.230469 217.65625 167.914062 218.195312 C 168.59375 218.738281 169.296875 219.242188 170.027344 219.71875 C 170.757812 220.191406 171.507812 220.628906 172.277344 221.027344 C 173.050781 221.429688 173.839844 221.792969 174.644531 222.121094 C 175.453125 222.445312 176.269531 222.730469 177.105469 222.980469 C 177.9375 223.226562 178.78125 223.433594 179.636719 223.601562 C 180.488281 223.765625 181.347656 223.890625 182.214844 223.976562 C 183.078125 224.0625 183.945312 224.101562 184.816406 224.105469 Z M 184.816406 224.105469 " fill-opacity="1" fill-rule="nonzero"/></g><path fill="#f97316" d="M 196.554688 184.9375 C 196.722656 184.640625 196.859375 184.328125 196.960938 184 C 197.066406 183.675781 197.136719 183.34375 197.171875 183 C 197.210938 182.660156 197.214844 182.320312 197.179688 181.980469 C 197.148438 181.640625 197.085938 181.304688 196.984375 180.976562 C 196.886719 180.648438 196.753906 180.335938 196.59375 180.035156 C 196.429688 179.730469 196.238281 179.449219 196.019531 179.1875 C 195.800781 178.925781 195.558594 178.6875 195.289062 178.472656 C 195.023438 178.257812 194.738281 178.074219 194.433594 177.917969 C 194.128906 177.761719 193.808594 177.636719 193.480469 177.546875 C 193.152344 177.453125 192.816406 177.394531 192.472656 177.371094 C 192.132812 177.34375 191.792969 177.355469 191.453125 177.398438 C 191.113281 177.441406 190.78125 177.519531 190.457031 177.632812 C 190.132812 177.742188 189.824219 177.882812 189.527344 178.058594 C 189.234375 178.230469 188.957031 178.433594 188.703125 178.660156 C 188.449219 178.890625 188.21875 179.140625 188.015625 179.417969 C 187.8125 179.691406 187.636719 179.984375 187.492188 180.292969 L 189.261719 181.203125 C 189.441406 180.828125 189.6875 180.5 190.003906 180.222656 C 190.316406 179.945312 190.667969 179.738281 191.066406 179.601562 C 191.460938 179.46875 191.871094 179.417969 192.289062 179.449219 C 192.703125 179.480469 193.101562 179.589844 193.472656 179.78125 C 193.84375 179.96875 194.167969 180.226562 194.4375 180.546875 C 194.703125 180.867188 194.902344 181.226562 195.023438 181.628906 C 195.148438 182.027344 195.1875 182.433594 195.148438 182.851562 C 195.105469 183.269531 194.984375 183.660156 194.78125 184.027344 Z M 196.554688 184.9375 " fill-opacity="1" fill-rule="nonzero"/><g clip-path="url(#038a7566f3)"><path fill="#f97316" d="M 188.957031 169.105469 C 188.726562 168.757812 188.574219 168.378906 188.496094 167.964844 C 188.421875 167.554688 188.429688 167.144531 188.519531 166.734375 C 188.609375 166.328125 188.773438 165.953125 189.015625 165.609375 C 189.257812 165.269531 189.554688 164.988281 189.910156 164.765625 C 190.265625 164.546875 190.648438 164.402344 191.0625 164.335938 C 191.476562 164.269531 191.886719 164.289062 192.292969 164.386719 C 192.699219 164.488281 193.070312 164.664062 193.402344 164.914062 C 193.738281 165.164062 194.011719 165.46875 194.226562 165.828125 L 195.914062 164.777344 C 195.742188 164.484375 195.542969 164.214844 195.316406 163.960938 C 195.085938 163.710938 194.835938 163.484375 194.566406 163.285156 C 194.292969 163.082031 194.003906 162.910156 193.695312 162.765625 C 193.386719 162.621094 193.070312 162.511719 192.742188 162.429688 C 192.410156 162.351562 192.078125 162.304688 191.738281 162.289062 C 191.402344 162.277344 191.0625 162.296875 190.730469 162.351562 C 190.394531 162.40625 190.070312 162.492188 189.75 162.609375 C 189.433594 162.726562 189.132812 162.878906 188.84375 163.054688 C 188.554688 163.234375 188.289062 163.441406 188.042969 163.671875 C 187.796875 163.90625 187.574219 164.160156 187.378906 164.4375 C 187.183594 164.714844 187.015625 165.007812 186.878906 165.316406 C 186.742188 165.625 186.636719 165.945312 186.5625 166.277344 C 186.488281 166.609375 186.449219 166.941406 186.441406 167.28125 C 186.4375 167.621094 186.460938 167.957031 186.523438 168.289062 C 186.582031 168.621094 186.675781 168.945312 186.800781 169.261719 C 186.925781 169.578125 187.082031 169.875 187.265625 170.160156 Z M 188.957031 169.105469 " fill-opacity="1" fill-rule="nonzero"/></g><path fill="#f97316" d="M 179.21875 191.554688 C 179.5 191.730469 179.800781 191.878906 180.113281 191.996094 C 180.425781 192.117188 180.746094 192.203125 181.078125 192.257812 C 181.40625 192.3125 181.738281 192.335938 182.074219 192.324219 C 182.40625 192.3125 182.738281 192.269531 183.0625 192.195312 C 183.390625 192.121094 183.707031 192.011719 184.011719 191.875 C 184.316406 191.738281 184.605469 191.570312 184.875 191.378906 C 185.148438 191.183594 185.398438 190.964844 185.628906 190.722656 C 185.855469 190.476562 186.058594 190.214844 186.238281 189.929688 L 184.546875 188.875 C 184.328125 189.222656 184.054688 189.519531 183.71875 189.757812 C 183.382812 189.996094 183.015625 190.164062 182.613281 190.257812 C 182.214844 190.351562 181.808594 190.363281 181.402344 190.296875 C 180.996094 190.226562 180.621094 190.085938 180.269531 189.867188 C 179.921875 189.648438 179.625 189.375 179.386719 189.039062 C 179.148438 188.703125 178.980469 188.335938 178.886719 187.933594 C 178.796875 187.535156 178.78125 187.128906 178.851562 186.722656 C 178.917969 186.316406 179.058594 185.941406 179.277344 185.589844 L 177.589844 184.527344 C 177.414062 184.808594 177.265625 185.109375 177.148438 185.421875 C 177.027344 185.734375 176.941406 186.054688 176.886719 186.386719 C 176.832031 186.714844 176.808594 187.046875 176.820312 187.382812 C 176.832031 187.714844 176.875 188.046875 176.949219 188.371094 C 177.027344 188.699219 177.132812 189.015625 177.269531 189.320312 C 177.40625 189.625 177.574219 189.914062 177.769531 190.183594 C 177.964844 190.457031 178.183594 190.707031 178.425781 190.9375 C 178.671875 191.164062 178.933594 191.367188 179.21875 191.546875 Z M 179.21875 191.554688 " fill-opacity="1" fill-rule="nonzero"/><path fill="#f97316" d="M 198.371094 171.707031 L 200.359375 171.707031 L 200.359375 173.699219 L 198.371094 173.699219 Z M 198.371094 171.707031 " fill-opacity="1" fill-rule="nonzero"/><path fill="#f97316" d="M 211.746094 178.886719 L 213.738281 178.886719 L 213.738281 180.878906 L 211.746094 180.878906 Z M 211.746094 178.886719 " fill-opacity="1" fill-rule="nonzero"/><path fill="#f97316" d="M 178.828125 173.390625 L 180.820312 173.390625 L 180.820312 175.378906 L 178.828125 175.378906 Z M 178.828125 173.390625 " fill-opacity="1" fill-rule="nonzero"/></svg>