<svg xmlns="http://www.w3.org/2000/svg" xmlns:xlink="http://www.w3.org/1999/xlink" width="500" zoomAndPan="magnify" viewBox="0 0 375 374.999991" height="500" preserveAspectRatio="xMidYMid meet" version="1.0"><defs><g/><clipPath id="b3fa0c0f5b"><path d="M 155.300781 131 L 219.800781 131 L 219.800781 199.054688 L 155.300781 199.054688 Z M 155.300781 131 " clip-rule="nonzero"/></clipPath><clipPath id="4b4b769052"><path d="M 168.046875 169 L 207 169 L 207 171 L 168.046875 171 Z M 168.046875 169 " clip-rule="nonzero"/></clipPath><clipPath id="8d52dc15c2"><path d="M 168.046875 171 L 207 171 L 207 189 L 168.046875 189 Z M 168.046875 171 " clip-rule="nonzero"/></clipPath><clipPath id="36b3cfa961"><path d="M 186 148.574219 L 193 148.574219 L 193 154 L 186 154 Z M 186 148.574219 " clip-rule="nonzero"/></clipPath></defs><g clip-path="url(#b3fa0c0f5b)"><path fill="#368044" d="M 167.835938 141.617188 C 160.214844 147.507812 155.300781 156.738281 155.300781 167.109375 C 155.300781 184.878906 169.730469 199.304688 187.5 199.304688 C 205.269531 199.304688 219.695312 184.878906 219.695312 167.109375 C 219.695312 157.046875 215.070312 148.058594 207.828125 142.15625 C 207.796875 139.6875 206.269531 136.777344 203.589844 134.574219 C 199.628906 131.3125 194.640625 130.820312 192.457031 133.472656 C 190.273438 136.128906 191.714844 140.929688 195.679688 144.191406 C 198.460938 146.480469 201.75 147.402344 204.21875 146.828125 C 210.0625 151.648438 213.792969 158.945312 213.792969 167.109375 C 213.792969 181.617188 202.011719 193.398438 187.5 193.398438 C 172.988281 193.398438 161.207031 181.617188 161.207031 167.109375 C 161.207031 158.796875 165.074219 151.378906 171.101562 146.558594 C 172.066406 146.8125 173.683594 146.4375 174.796875 145.691406 L 184.683594 139.042969 C 185.070312 138.78125 185.222656 138.308594 185.023438 137.980469 C 184.820312 137.65625 184.347656 137.605469 183.960938 137.871094 L 175.414062 143.773438 C 175.03125 144.035156 174.59375 144.0625 174.441406 143.832031 C 174.289062 143.601562 174.480469 143.203125 174.867188 142.945312 L 183.515625 137.210938 C 183.90625 136.953125 184.054688 136.480469 183.855469 136.152344 C 183.652344 135.828125 183.171875 135.773438 182.785156 136.027344 L 174.097656 141.789062 C 173.710938 142.046875 173.226562 142 173.019531 141.6875 C 172.816406 141.378906 172.960938 140.914062 173.351562 140.65625 L 182.035156 134.898438 C 182.425781 134.640625 182.570312 134.175781 182.355469 133.855469 C 182.144531 133.539062 181.660156 133.488281 181.269531 133.746094 L 172.585938 139.503906 C 172.195312 139.761719 171.765625 139.792969 171.617188 139.574219 C 171.472656 139.355469 171.671875 138.96875 172.058594 138.710938 L 180.679688 132.996094 C 181.066406 132.738281 181.238281 132.292969 181.058594 132.003906 C 180.878906 131.710938 180.421875 131.683594 180.03125 131.941406 L 170.0625 138.550781 C 168.949219 139.289062 167.984375 140.632812 167.835938 141.617188 Z M 167.835938 141.617188 " fill-opacity="1" fill-rule="nonzero"/></g><path fill="#f97316" d="M 172.609375 160.828125 C 172.976562 161.070312 173.378906 161.199219 173.816406 161.222656 L 173.125 162.355469 L 174.234375 163.03125 L 174.902344 161.929688 C 175.117188 162.273438 175.398438 162.542969 175.75 162.742188 C 176.109375 162.9375 176.492188 163.035156 176.898438 163.035156 C 177.335938 163.039062 177.746094 162.929688 178.121094 162.707031 C 178.5 162.488281 178.792969 162.183594 179.007812 161.800781 C 179.21875 161.417969 179.316406 161.007812 179.300781 160.570312 C 179.285156 160.132812 179.160156 159.730469 178.925781 159.359375 C 179.070312 159.214844 179.195312 159.058594 179.304688 158.890625 C 179.417969 158.71875 179.507812 158.539062 179.582031 158.347656 C 179.652344 158.160156 179.703125 157.964844 179.734375 157.761719 C 179.765625 157.5625 179.777344 157.359375 179.765625 157.15625 C 179.75 156.953125 179.71875 156.753906 179.664062 156.558594 C 179.609375 156.363281 179.535156 156.175781 179.441406 155.996094 C 179.347656 155.816406 179.234375 155.644531 179.105469 155.488281 C 178.976562 155.332031 178.832031 155.191406 178.671875 155.066406 C 178.511719 154.941406 178.339844 154.832031 178.160156 154.742188 C 177.976562 154.65625 177.785156 154.585938 177.589844 154.535156 C 177.390625 154.488281 177.191406 154.460938 176.988281 154.453125 C 176.785156 154.445312 176.585938 154.460938 176.382812 154.496094 C 176.183594 154.53125 175.992188 154.589844 175.800781 154.664062 C 175.613281 154.742188 175.4375 154.839844 175.269531 154.953125 C 175.101562 155.070312 174.949219 155.199219 174.808594 155.347656 C 174.667969 155.496094 174.546875 155.65625 174.4375 155.828125 C 174.316406 156.027344 174.21875 156.238281 174.152344 156.460938 C 173.886719 156.4375 173.621094 156.457031 173.363281 156.519531 C 173.105469 156.582031 172.863281 156.683594 172.636719 156.828125 C 172.414062 156.972656 172.21875 157.148438 172.054688 157.359375 C 171.886719 157.566406 171.761719 157.796875 171.671875 158.050781 C 171.582031 158.300781 171.539062 158.558594 171.535156 158.828125 C 171.535156 159.09375 171.578125 159.351562 171.660156 159.605469 C 171.746094 159.859375 171.871094 160.089844 172.03125 160.300781 C 172.195312 160.511719 172.386719 160.691406 172.609375 160.839844 Z M 172.609375 160.828125 " fill-opacity="1" fill-rule="nonzero"/><path fill="#f97316" d="M 197.542969 166.285156 C 197.777344 166.453125 197.921875 166.675781 197.980469 166.957031 C 198.035156 167.238281 197.988281 167.5 197.835938 167.746094 C 197.730469 167.921875 197.675781 168.109375 197.675781 168.3125 L 199.863281 168.3125 C 199.863281 168.160156 199.832031 168.015625 199.769531 167.875 C 199.703125 167.726562 199.6875 167.574219 199.730469 167.414062 C 199.769531 167.257812 199.855469 167.128906 199.988281 167.03125 C 200.117188 166.933594 200.265625 166.886719 200.429688 166.894531 C 200.59375 166.898438 200.734375 166.957031 200.859375 167.066406 C 201.058594 167.230469 201.289062 167.3125 201.550781 167.3125 C 201.8125 167.3125 202.042969 167.230469 202.246094 167.066406 C 202.457031 166.886719 202.585938 166.660156 202.628906 166.382812 C 202.667969 166.109375 202.617188 165.855469 202.464844 165.617188 C 202.335938 165.421875 202.160156 165.277344 201.9375 165.195312 C 201.714844 165.109375 201.492188 165.101562 201.261719 165.164062 C 200.988281 165.238281 200.722656 165.210938 200.472656 165.082031 C 200.21875 164.949219 200.042969 164.75 199.949219 164.480469 C 199.894531 164.324219 199.820312 164.183594 199.71875 164.050781 C 199.59375 163.886719 199.441406 163.75 199.261719 163.640625 C 199.082031 163.535156 198.890625 163.46875 198.683594 163.4375 C 198.476562 163.40625 198.273438 163.417969 198.070312 163.464844 C 197.867188 163.515625 197.683594 163.605469 197.515625 163.726562 C 197.3125 163.878906 197.15625 164.066406 197.042969 164.292969 C 196.929688 164.519531 196.875 164.761719 196.878906 165.011719 C 196.882812 165.265625 196.941406 165.503906 197.058594 165.726562 C 197.171875 165.953125 197.335938 166.136719 197.539062 166.285156 Z M 197.542969 166.285156 " fill-opacity="1" fill-rule="nonzero"/><g clip-path="url(#4b4b769052)"><path fill="#f97316" d="M 168.046875 169.605469 L 206.941406 169.605469 L 206.941406 170.539062 L 168.046875 170.539062 Z M 168.046875 169.605469 " fill-opacity="1" fill-rule="nonzero"/></g><g clip-path="url(#8d52dc15c2)"><path fill="#f97316" d="M 185.753906 188.890625 L 189.238281 188.890625 C 190.371094 188.886719 191.496094 188.777344 192.609375 188.5625 C 193.722656 188.34375 194.804688 188.023438 195.859375 187.597656 C 196.910156 187.171875 197.914062 186.648438 198.863281 186.03125 C 199.816406 185.414062 200.699219 184.710938 201.519531 183.925781 C 202.335938 183.136719 203.070312 182.277344 203.722656 181.351562 C 204.375 180.421875 204.929688 179.441406 205.394531 178.402344 C 205.859375 177.367188 206.21875 176.296875 206.476562 175.191406 C 206.734375 174.085938 206.886719 172.96875 206.929688 171.835938 L 168.058594 171.835938 C 168.101562 172.96875 168.253906 174.085938 168.511719 175.191406 C 168.769531 176.296875 169.128906 177.367188 169.59375 178.402344 C 170.058594 179.441406 170.617188 180.421875 171.269531 181.351562 C 171.917969 182.28125 172.65625 183.136719 173.472656 183.925781 C 174.289062 184.710938 175.171875 185.414062 176.125 186.03125 C 177.078125 186.652344 178.078125 187.171875 179.132812 187.597656 C 180.183594 188.023438 181.265625 188.34375 182.378906 188.5625 C 183.492188 188.777344 184.617188 188.886719 185.753906 188.890625 Z M 185.753906 188.890625 " fill-opacity="1" fill-rule="nonzero"/></g><path fill="#f97316" d="M 193.394531 163.390625 C 193.613281 162.996094 193.75 162.578125 193.796875 162.128906 C 193.847656 161.683594 193.804688 161.242188 193.675781 160.8125 C 193.542969 160.378906 193.335938 159.992188 193.046875 159.644531 C 192.757812 159.300781 192.414062 159.023438 192.011719 158.820312 C 191.613281 158.613281 191.1875 158.496094 190.738281 158.464844 C 190.289062 158.429688 189.851562 158.488281 189.425781 158.632812 C 189 158.777344 188.617188 159.003906 188.285156 159.304688 C 187.949219 159.605469 187.683594 159.957031 187.496094 160.367188 L 188.648438 160.960938 C 188.765625 160.714844 188.925781 160.5 189.128906 160.320312 C 189.332031 160.136719 189.5625 160.003906 189.820312 159.917969 C 190.078125 159.828125 190.34375 159.796875 190.617188 159.816406 C 190.886719 159.835938 191.144531 159.90625 191.386719 160.03125 C 191.632812 160.15625 191.839844 160.324219 192.015625 160.53125 C 192.191406 160.738281 192.320312 160.972656 192.398438 161.234375 C 192.480469 161.496094 192.503906 161.761719 192.476562 162.03125 C 192.449219 162.304688 192.371094 162.558594 192.242188 162.796875 Z M 193.394531 163.390625 " fill-opacity="1" fill-rule="nonzero"/><g clip-path="url(#36b3cfa961)"><path fill="#f97316" d="M 188.449219 153.082031 C 188.296875 152.855469 188.199219 152.609375 188.148438 152.339844 C 188.101562 152.074219 188.105469 151.804688 188.164062 151.539062 C 188.222656 151.273438 188.328125 151.03125 188.488281 150.808594 C 188.644531 150.585938 188.835938 150.402344 189.070312 150.257812 C 189.300781 150.113281 189.550781 150.019531 189.820312 149.976562 C 190.089844 149.933594 190.355469 149.945312 190.621094 150.011719 C 190.882812 150.078125 191.125 150.191406 191.34375 150.351562 C 191.5625 150.515625 191.742188 150.714844 191.878906 150.949219 L 192.980469 150.265625 C 192.75 149.882812 192.457031 149.558594 192.097656 149.292969 C 191.742188 149.027344 191.34375 148.84375 190.914062 148.738281 C 190.480469 148.632812 190.042969 148.613281 189.601562 148.683594 C 189.164062 148.753906 188.753906 148.910156 188.375 149.144531 C 187.996094 149.378906 187.679688 149.679688 187.421875 150.042969 C 187.164062 150.40625 186.988281 150.804688 186.890625 151.242188 C 186.792969 151.675781 186.785156 152.113281 186.863281 152.550781 C 186.941406 152.988281 187.105469 153.394531 187.347656 153.769531 Z M 188.449219 153.082031 " fill-opacity="1" fill-rule="nonzero"/></g><path fill="#f97316" d="M 182.109375 167.699219 C 182.480469 167.929688 182.882812 168.082031 183.320312 168.15625 C 183.753906 168.226562 184.183594 168.214844 184.613281 168.113281 C 185.039062 168.015625 185.433594 167.839844 185.792969 167.582031 C 186.148438 167.328125 186.445312 167.011719 186.679688 166.640625 L 185.578125 165.953125 C 185.4375 166.179688 185.257812 166.371094 185.039062 166.527344 C 184.820312 166.683594 184.582031 166.792969 184.320312 166.851562 C 184.058594 166.914062 183.796875 166.921875 183.53125 166.878906 C 183.265625 166.835938 183.019531 166.742188 182.792969 166.597656 C 182.566406 166.457031 182.375 166.277344 182.21875 166.058594 C 182.0625 165.84375 181.953125 165.601562 181.894531 165.339844 C 181.832031 165.082031 181.824219 164.816406 181.867188 164.554688 C 181.914062 164.289062 182.003906 164.042969 182.148438 163.816406 L 181.046875 163.121094 C 180.816406 163.496094 180.664062 163.898438 180.589844 164.332031 C 180.519531 164.765625 180.53125 165.199219 180.632812 165.625 C 180.730469 166.054688 180.910156 166.449219 181.164062 166.804688 C 181.421875 167.164062 181.734375 167.460938 182.109375 167.691406 Z M 182.109375 167.699219 " fill-opacity="1" fill-rule="nonzero"/><path fill="#f97316" d="M 194.578125 154.777344 L 195.875 154.777344 L 195.875 156.074219 L 194.578125 156.074219 Z M 194.578125 154.777344 " fill-opacity="1" fill-rule="nonzero"/><path fill="#f97316" d="M 203.285156 159.449219 L 204.582031 159.449219 L 204.582031 160.746094 L 203.285156 160.746094 Z M 203.285156 159.449219 " fill-opacity="1" fill-rule="nonzero"/><path fill="#f97316" d="M 181.855469 155.871094 L 183.152344 155.871094 L 183.152344 157.167969 L 181.855469 157.167969 Z M 181.855469 155.871094 " fill-opacity="1" fill-rule="nonzero"/><g fill="#368044" fill-opacity="1"><g transform="translate(110.361098, 229.761167)"><g><path d="M 2.773438 0 L 7.984375 0 L 7.984375 -13.925781 L 13.597656 -5.710938 L 17.226562 -5.710938 L 22.835938 -13.894531 L 22.835938 0 L 28.050781 0 L 28.050781 -23.101562 L 23.628906 -23.101562 L 15.445312 -11.121094 L 7.226562 -23.101562 L 2.773438 -23.101562 Z M 2.773438 0 "/></g></g></g><g fill="#368044" fill-opacity="1"><g transform="translate(139.368036, 229.761167)"><g><path d="M 10.691406 0.460938 C 14.949219 0.460938 18.316406 -1.714844 19.832031 -5.378906 L 14.75 -5.378906 C 13.925781 -4.222656 12.441406 -3.5625 10.789062 -3.5625 C 8.515625 -3.5625 6.730469 -4.851562 6.269531 -7.226562 L 20.164062 -7.226562 C 20.460938 -13.5625 16.699219 -17.785156 10.757812 -17.785156 C 5.148438 -17.785156 1.285156 -14.058594 1.285156 -8.679688 C 1.285156 -3.265625 5.113281 0.460938 10.691406 0.460938 Z M 6.304688 -10.394531 C 6.863281 -12.507812 8.578125 -13.792969 10.789062 -13.792969 C 13.101562 -13.792969 14.75 -12.507812 15.3125 -10.394531 Z M 6.304688 -10.394531 "/></g></g></g><g fill="#368044" fill-opacity="1"><g transform="translate(158.96999, 229.761167)"><g><path d="M 8.28125 0.328125 C 10.855469 0.328125 12.96875 -0.496094 14.453125 -2.011719 L 15.015625 0 L 18.742188 0 L 18.742188 -10.429688 C 18.742188 -15.015625 15.640625 -17.785156 10.460938 -17.785156 C 6.039062 -17.785156 3.136719 -15.675781 2.507812 -11.914062 L 7.324219 -11.914062 C 7.621094 -13.132812 8.878906 -13.960938 10.492188 -13.960938 C 12.472656 -13.960938 13.828125 -12.835938 13.828125 -11.121094 L 13.828125 -10.328125 L 7.558594 -10.328125 C 3.960938 -10.328125 1.648438 -8.25 1.648438 -5.050781 C 1.648438 -1.714844 4.191406 0.328125 8.28125 0.328125 Z M 6.601562 -5.246094 C 6.601562 -6.433594 7.589844 -7.195312 9.109375 -7.195312 L 13.859375 -7.195312 C 13.761719 -4.851562 11.945312 -3.265625 9.4375 -3.265625 C 7.722656 -3.265625 6.601562 -4.058594 6.601562 -5.246094 Z M 6.601562 -5.246094 "/></g></g></g><g fill="#368044" fill-opacity="1"><g transform="translate(178.076953, 229.761167)"><g><path d="M 2.507812 0 L 7.523438 0 L 7.523438 -24.421875 L 2.507812 -24.421875 Z M 2.507812 0 "/></g></g></g><g fill="#368044" fill-opacity="1"><g transform="translate(186.293936, 229.761167)"><g/></g></g><g fill="#368044" fill-opacity="1"><g transform="translate(192.233923, 229.761167)"><g><path d="M 2.773438 0 L 11.914062 0 C 19.207031 0 24.089844 -4.652344 24.089844 -11.550781 C 24.089844 -18.414062 19.207031 -23.101562 11.914062 -23.101562 L 2.773438 -23.101562 Z M 8.019531 -4.816406 L 8.019531 -18.28125 L 11.746094 -18.28125 C 15.90625 -18.28125 18.710938 -15.609375 18.710938 -11.550781 C 18.710938 -7.492188 15.90625 -4.816406 11.8125 -4.816406 Z M 8.019531 -4.816406 "/></g></g></g><g fill="#368044" fill-opacity="1"><g transform="translate(215.894867, 229.761167)"><g><path d="M 10.691406 0.460938 C 14.949219 0.460938 18.316406 -1.714844 19.832031 -5.378906 L 14.75 -5.378906 C 13.925781 -4.222656 12.441406 -3.5625 10.789062 -3.5625 C 8.515625 -3.5625 6.730469 -4.851562 6.269531 -7.226562 L 20.164062 -7.226562 C 20.460938 -13.5625 16.699219 -17.785156 10.757812 -17.785156 C 5.148438 -17.785156 1.285156 -14.058594 1.285156 -8.679688 C 1.285156 -3.265625 5.113281 0.460938 10.691406 0.460938 Z M 6.304688 -10.394531 C 6.863281 -12.507812 8.578125 -13.792969 10.789062 -13.792969 C 13.101562 -13.792969 14.75 -12.507812 15.3125 -10.394531 Z M 6.304688 -10.394531 "/></g></g></g><g fill="#368044" fill-opacity="1"><g transform="translate(235.496822, 229.761167)"><g><path d="M 8.28125 0.328125 C 10.855469 0.328125 12.96875 -0.496094 14.453125 -2.011719 L 15.015625 0 L 18.742188 0 L 18.742188 -10.429688 C 18.742188 -15.015625 15.640625 -17.785156 10.460938 -17.785156 C 6.039062 -17.785156 3.136719 -15.675781 2.507812 -11.914062 L 7.324219 -11.914062 C 7.621094 -13.132812 8.878906 -13.960938 10.492188 -13.960938 C 12.472656 -13.960938 13.828125 -12.835938 13.828125 -11.121094 L 13.828125 -10.328125 L 7.558594 -10.328125 C 3.960938 -10.328125 1.648438 -8.25 1.648438 -5.050781 C 1.648438 -1.714844 4.191406 0.328125 8.28125 0.328125 Z M 6.601562 -5.246094 C 6.601562 -6.433594 7.589844 -7.195312 9.109375 -7.195312 L 13.859375 -7.195312 C 13.761719 -4.851562 11.945312 -3.265625 9.4375 -3.265625 C 7.722656 -3.265625 6.601562 -4.058594 6.601562 -5.246094 Z M 6.601562 -5.246094 "/></g></g></g><g fill="#368044" fill-opacity="1"><g transform="translate(254.603784, 229.761167)"><g><path d="M 2.507812 0 L 7.523438 0 L 7.523438 -24.421875 L 2.507812 -24.421875 Z M 2.507812 0 "/></g></g></g><g fill="#368044" fill-opacity="1"><g transform="translate(144.120044, 242.335107)"><g><path d="M 4.136719 0 L 5.40625 0 L 5.40625 -5.601562 L 4.136719 -5.601562 L 4.136719 -3.449219 L 1.945312 -3.449219 L 1.945312 -5.601562 L 0.671875 -5.601562 L 0.671875 0 L 1.945312 0 L 1.945312 -2.257812 L 4.136719 -2.257812 Z M 4.136719 0 "/></g></g></g><g fill="#368044" fill-opacity="1"><g transform="translate(152.248103, 242.335107)"><g><path d="M 0.671875 0 L 4.441406 0 L 4.441406 -1.078125 L 1.9375 -1.078125 L 1.9375 -2.304688 L 4.136719 -2.304688 L 4.136719 -3.367188 L 1.9375 -3.367188 L 1.9375 -4.527344 L 4.351562 -4.527344 L 4.351562 -5.601562 L 0.671875 -5.601562 Z M 0.671875 0 "/></g></g></g><g fill="#368044" fill-opacity="1"><g transform="translate(159.144145, 242.335107)"><g><path d="M 0.0703125 0 L 1.433594 0 L 1.808594 -0.96875 L 4.03125 -0.96875 L 4.40625 0 L 5.769531 0 L 3.542969 -5.601562 L 2.296875 -5.601562 Z M 2.136719 -1.96875 L 2.921875 -4.015625 L 3.710938 -1.96875 Z M 2.136719 -1.96875 "/></g></g></g><g fill="#368044" fill-opacity="1"><g transform="translate(167.032195, 242.335107)"><g><path d="M 0.671875 0 L 4.390625 0 L 4.390625 -1.191406 L 1.945312 -1.191406 L 1.945312 -5.601562 L 0.671875 -5.601562 Z M 0.671875 0 "/></g></g></g><g fill="#368044" fill-opacity="1"><g transform="translate(173.688235, 242.335107)"><g><path d="M 2.015625 0 L 3.289062 0 L 3.289062 -4.40625 L 5.0625 -4.40625 L 5.0625 -5.601562 L 0.238281 -5.601562 L 0.238281 -4.40625 L 2.015625 -4.40625 Z M 2.015625 0 "/></g></g></g><g fill="#368044" fill-opacity="1"><g transform="translate(181.04028, 242.335107)"><g><path d="M 4.136719 0 L 5.40625 0 L 5.40625 -5.601562 L 4.136719 -5.601562 L 4.136719 -3.449219 L 1.945312 -3.449219 L 1.945312 -5.601562 L 0.671875 -5.601562 L 0.671875 0 L 1.945312 0 L 1.945312 -2.257812 L 4.136719 -2.257812 Z M 4.136719 0 "/></g></g></g><g fill="#368044" fill-opacity="1"><g transform="translate(189.168338, 242.335107)"><g><path d="M 2.136719 0 L 3.40625 0 L 3.40625 -1.976562 L 5.464844 -5.601562 L 4.015625 -5.601562 L 3.328125 -4.304688 L 2.777344 -3.289062 L 2.214844 -4.304688 L 1.519531 -5.601562 L 0.0703125 -5.601562 L 2.136719 -1.960938 Z M 2.136719 0 "/></g></g></g><g fill="#368044" fill-opacity="1"><g transform="translate(196.752388, 242.335107)"><g/></g></g><g fill="#368044" fill-opacity="1"><g transform="translate(200.680408, 242.335107)"><g><path d="M 0.671875 0 L 1.945312 0 L 1.945312 -1.929688 L 3.976562 -1.929688 L 3.976562 -3.046875 L 1.945312 -3.046875 L 1.945312 -4.449219 L 4.183594 -4.449219 L 4.183594 -5.601562 L 0.671875 -5.601562 Z M 0.671875 0 "/></g></g></g><g fill="#368044" fill-opacity="1"><g transform="translate(207.264447, 242.335107)"><g><path d="M 3.328125 0.113281 C 5.078125 0.113281 6.320312 -1.089844 6.320312 -2.800781 C 6.320312 -4.511719 5.078125 -5.710938 3.328125 -5.710938 C 1.574219 -5.710938 0.34375 -4.511719 0.34375 -2.800781 C 0.34375 -1.089844 1.574219 0.113281 3.328125 0.113281 Z M 1.640625 -2.800781 C 1.640625 -3.808594 2.335938 -4.503906 3.328125 -4.503906 C 4.328125 -4.503906 5.015625 -3.808594 5.015625 -2.800781 C 5.015625 -1.792969 4.328125 -1.097656 3.328125 -1.097656 C 2.335938 -1.097656 1.640625 -1.792969 1.640625 -2.800781 Z M 1.640625 -2.800781 "/></g></g></g><g fill="#368044" fill-opacity="1"><g transform="translate(215.9765, 242.335107)"><g><path d="M 3.328125 0.113281 C 5.078125 0.113281 6.320312 -1.089844 6.320312 -2.800781 C 6.320312 -4.511719 5.078125 -5.710938 3.328125 -5.710938 C 1.574219 -5.710938 0.34375 -4.511719 0.34375 -2.800781 C 0.34375 -1.089844 1.574219 0.113281 3.328125 0.113281 Z M 1.640625 -2.800781 C 1.640625 -3.808594 2.335938 -4.503906 3.328125 -4.503906 C 4.328125 -4.503906 5.015625 -3.808594 5.015625 -2.800781 C 5.015625 -1.792969 4.328125 -1.097656 3.328125 -1.097656 C 2.335938 -1.097656 1.640625 -1.792969 1.640625 -2.800781 Z M 1.640625 -2.800781 "/></g></g></g><g fill="#368044" fill-opacity="1"><g transform="translate(224.688553, 242.335107)"><g><path d="M 0.671875 0 L 2.886719 0 C 4.65625 0 5.839844 -1.128906 5.839844 -2.800781 C 5.839844 -4.464844 4.65625 -5.601562 2.886719 -5.601562 L 0.671875 -5.601562 Z M 1.945312 -1.167969 L 1.945312 -4.433594 L 2.847656 -4.433594 C 3.855469 -4.433594 4.535156 -3.785156 4.535156 -2.800781 C 4.535156 -1.816406 3.855469 -1.167969 2.863281 -1.167969 Z M 1.945312 -1.167969 "/></g></g></g></svg>